
<svg xmlns="http://www.w3.org/2000/svg" version="1.1" xmlns:xlink="http://www.w3.org/1999/xlink" preserveAspectRatio="none" x="0px" y="0px" width="500px" height="500px" viewBox="0 0 500 500">
<defs>
<g id="Layer0_0_FILL">
<path fill="rgb(241, 241, 241)" stroke="none" d="
M 138.35 115.3
Q 138.35 106.5 132.2 100.35 126 94.15 117.2 94.15 108.45 94.15 102.3 100.3 96.1 106.5 96.05 115.3 96.1 124.05 102.3 130.25 108.45 136.4 117.2 136.45 126 136.45 132.2 130.25 138.35 124.1 138.35 115.3
M -21.1 164.15
Q -21.1 172.9 -14.9 179.1 -8.7 185.3 0.05 185.3 8.8 185.3 15 179.1 21.2 172.9 21.2 164.15 21.2 155.4 15 149.2 8.8 143 0.05 143 -8.7 143 -14.9 149.2 -21.1 155.4 -21.1 164.15
M -121.8 89.2
Q -130.55 89.15 -136.75 95.35 -142.95 101.55 -142.95 110.35 -142.9 119.1 -136.75 125.25 -130.55 131.45 -121.8 131.5 -113.05 131.45 -106.85 125.25 -100.65 119.05 -100.65 110.35 -100.65 101.55 -106.85 95.35 -113 89.2 -121.8 89.2
M -136.1 -116.85
Q -136.05 -108.1 -129.85 -101.9 -123.65 -95.7 -114.95 -95.7 -106.15 -95.7 -99.95 -101.9 -93.8 -108.05 -93.8 -116.85 -93.75 -125.6 -99.95 -131.8 -106.15 -138 -114.95 -138 -123.7 -137.95 -129.85 -131.8 -136.05 -125.6 -136.1 -116.85
M -164.1 -21.1
Q -172.85 -21.1 -179.05 -14.9 -185.25 -8.7 -185.25 0.05 -185.25 8.8 -179.05 15 -172.85 21.2 -164.1 21.2 -155.35 21.2 -149.15 15 -142.95 8.8 -142.95 0.05 -142.95 -8.7 -149.15 -14.9 -155.35 -21.1 -164.1 -21.1
M 179.1 -14.9
Q 172.9 -21.1 164.15 -21.1 155.4 -21.1 149.2 -14.9 143 -8.7 143 0.05 143 8.8 149.2 15 155.4 21.2 164.15 21.2 172.9 21.2 179.1 15 185.3 8.8 185.3 0.05 185.3 -8.7 179.1 -14.9
M 15 -149.15
Q 21.2 -155.35 21.2 -164.1 21.2 -172.85 15 -179.05 8.8 -185.25 0.05 -185.25 -8.7 -185.25 -14.9 -179.05 -21.1 -172.85 -21.1 -164.1 -21.1 -155.35 -14.9 -149.15 -8.7 -142.95 0.05 -142.95 8.8 -142.95 15 -149.15
M 95.4 -106.85
Q 101.6 -100.65 110.35 -100.65 119.1 -100.7 125.3 -106.9 131.45 -113.05 131.5 -121.8 131.5 -130.6 125.3 -136.8 119.15 -142.95 110.35 -142.95 101.55 -142.95 95.4 -136.8 89.2 -130.6 89.2 -121.8 89.25 -113 95.4 -106.85 Z"/>
</g>
</defs>

<g transform="matrix( -0.70709228515625, -0.70709228515625, 0.70709228515625, -0.70709228515625, 250.2,250.45) ">
<g transform="matrix( 1, 0, 0, 1, 0,0) ">
<use xlink:href="#Layer0_0_FILL"/>
</g>
</g>
</svg>
