<svg id="Capa_1" enable-background="new 0 0 512 512" height="512" viewBox="0 0 512 512" width="512" xmlns="http://www.w3.org/2000/svg"><g><path fill="#8a8a8a" d="m437.02 74.98c-48.353-48.351-112.64-74.98-181.02-74.98s-132.667 26.629-181.02 74.98c-48.351 48.353-74.98 112.64-74.98 181.02s26.629 132.667 74.98 181.02c48.353 48.351 112.64 74.98 181.02 74.98s132.667-26.629 181.02-74.98c48.351-48.353 74.98-112.64 74.98-181.02s-26.629-132.667-74.98-181.02zm-21.214 340.826c-42.686 42.686-99.439 66.194-159.806 66.194s-117.12-23.508-159.806-66.194-66.194-99.439-66.194-159.806 23.508-117.12 66.194-159.806 99.439-66.194 159.806-66.194 117.12 23.508 159.806 66.194 66.194 99.439 66.194 159.806-23.508 117.12-66.194 159.806z"/><path fill="#8a8a8a" d="m256 391.625c-53.938 0-102.746-31.943-124.346-81.379l-27.49 12.012c26.374 60.363 85.974 99.368 151.836 99.368s125.461-39.004 151.836-99.367l-27.49-12.012c-21.601 49.435-70.409 81.378-124.346 81.378z"/><path fill="#8a8a8a" d="m165.625 180.625c16.646 0 30.188 13.542 30.188 30.188h30c0-33.188-27-60.188-60.188-60.188s-60.188 27-60.188 60.188h30c.001-16.646 13.542-30.188 30.188-30.188z"/><path fill="#8a8a8a" d="m346.375 180.625c16.646 0 30.188 13.542 30.188 30.188h30c0-33.188-27-60.188-60.188-60.188s-60.188 27-60.188 60.188h30c.001-16.646 13.542-30.188 30.188-30.188z"/></g></svg>